<svg xmlns="http://www.w3.org/2000/svg" viewBox="0 0 1435 176" width="1435" height="176"><style>tspan { white-space:pre }</style><path fill="#ffffff" d="M0.75 84.61Q0.75 80.07 3.51 75.52Q6.26 70.98 10.81 66.71Q15.35 62.31 21.13 58.59Q26.92 54.73 32.84 51.84Q38.9 48.95 44.54 47.3Q50.32 45.64 54.59 45.64Q54.59 49.64 52.53 52.94Q50.6 56.25 47.29 59.14Q43.99 62.03 39.86 64.78Q35.87 67.4 31.87 70.02Q28.02 72.63 24.44 75.52Q20.86 78.42 18.65 81.72Q18.52 82.13 18.38 82.27Q18.38 82.68 18.38 83.1Q18.38 83.51 18.38 83.92Q18.52 84.34 18.65 84.61Q18.93 84.75 19.89 85.99Q21 87.23 21.55 87.5Q22.23 88.05 24.71 89.57Q27.33 91.08 30.63 93.29Q34.08 95.49 37.79 97.83Q41.65 100.17 44.95 102.38Q48.26 104.58 50.74 106.23Q53.22 107.75 54.18 108.3Q54.46 108.43 55.56 109.67Q56.8 110.77 56.93 111.05Q56.93 111.46 57.07 111.88Q57.07 112.01 57.07 112.29Q57.21 112.56 57.21 112.7Q57.21 112.84 57.07 113.12Q57.07 113.25 57.07 113.39Q56.93 113.8 56.93 114.08Q56.66 114.63 55.69 115.73Q54.73 116.83 53.77 117.8Q52.94 118.62 52.11 119.31Q51.29 120 51.01 120Q48.81 120 44.13 118.35Q39.58 116.56 33.94 113.67Q28.43 110.77 22.51 107.06Q16.73 103.34 11.77 99.35Q6.95 95.35 3.78 91.5Q0.75 87.64 0.75 84.61ZM123.17 61.07Q123.17 59.41 123.17 55.7Q123.3 51.84 123.3 47.71Q123.3 43.44 123.3 39.72Q123.44 36.01 123.44 34.49Q123.58 33.53 124.13 31.6Q124.68 29.53 125.37 27.61Q126.19 25.68 127.43 24.3Q128.81 22.79 130.74 22.79Q135.28 22.79 139.28 25.27Q143.27 27.74 146.99 31.88Q150.7 35.87 154.01 40.83Q157.45 45.78 160.76 50.74Q164.06 55.56 167.23 59.96Q170.39 64.23 173.56 66.85Q177 65.33 178.93 61.34Q180.86 57.21 182.1 51.98Q183.34 46.61 184.3 40.96Q185.4 35.18 187.19 30.36Q188.98 25.54 191.88 22.51Q194.9 19.34 200.14 19.34Q206.33 19.34 211.29 24.16Q216.38 28.98 220.38 36.42Q224.37 43.85 227.13 52.94Q230.02 62.03 231.94 70.43Q233.87 78.83 234.84 85.58Q235.8 92.32 235.8 95.21Q235.8 96.45 235.66 97.97Q235.52 99.35 234.97 100.58Q234.42 101.69 233.18 102.38Q231.94 102.93 229.6 102.24Q228.92 102.1 227.95 101.55Q227.13 100.86 226.16 99.9Q225.2 98.93 224.51 98.11Q223.82 97.14 223.82 96.45Q222.58 89.71 221.07 81.45Q219.55 73.18 217.21 64.78Q215.01 56.25 211.57 48.26Q208.12 40.27 203.03 34.49Q199.04 36.69 196.69 41.24Q194.49 45.64 192.98 51.01Q191.46 56.25 190.22 61.75Q188.98 67.26 186.92 71.81Q184.85 76.21 181.69 79.1Q178.52 82 173.15 82Q169.43 82 165.85 79.66Q162.41 77.18 159.1 73.32Q155.8 69.33 152.63 64.65Q149.6 59.83 146.57 55.28Q143.68 50.6 140.79 46.61Q138.04 42.62 135.14 40.27Q134.04 44.54 133.35 47.85Q132.8 51.01 132.39 54.04Q132.12 57.07 131.98 60.24Q131.98 63.41 131.98 67.26Q131.98 73.05 132.94 78.83Q133.91 84.47 135.01 90.12Q136.11 95.77 137.07 101.55Q138.17 107.19 138.17 112.98L138.17 114.08Q137.9 114.49 137.07 115.46Q136.25 116.28 135.28 117.25Q134.46 118.21 133.49 119.04Q132.53 119.72 132.12 120Q131.98 120.14 131.56 120.14Q131.15 120.28 130.74 120.28Q130.46 120.28 130.05 120.14Q129.64 120 129.36 120Q128.4 112.01 127.3 104.85Q126.19 97.69 125.23 90.67Q124.4 83.65 123.72 76.49Q123.17 69.33 123.17 61.07ZM241.72 48.81Q241.72 47.57 241.72 46.33Q241.86 44.96 242.27 43.85Q242.82 42.62 243.65 42.06Q244.61 41.38 246.4 41.38Q246.54 41.38 246.68 41.38Q246.95 41.38 247.23 41.38Q247.64 41.51 247.92 41.51Q250.53 45.09 252.46 50.74Q254.39 56.25 256.18 62.58Q257.97 68.78 260.03 75.25Q262.1 81.58 265.4 86.68Q268.71 91.77 273.53 94.8Q278.35 97.83 285.51 97.42Q288.67 97.42 289.64 93.98Q290.6 90.53 290.6 85.16Q290.74 79.79 290.33 73.32Q290.05 66.85 290.33 61.07Q290.74 55.15 292.39 50.74Q294.18 46.33 298.45 44.82Q300.24 48.4 301.34 56.11Q302.58 63.68 303.13 73.73Q303.68 83.65 303.68 95.35Q303.68 106.92 303.13 118.49Q302.58 129.91 301.48 140.52Q300.38 151.12 299 159.11Q297.63 167.09 295.7 171.77Q293.91 176.32 291.84 175.63Q288.95 172.88 287.3 168.47Q285.78 164.06 285.09 158.69Q284.54 153.32 284.68 147.4Q284.82 141.34 285.09 135.28Q285.51 129.23 285.92 123.44Q286.47 117.66 286.47 112.84Q281.51 113.25 276.28 111.33Q271.19 109.4 266.23 105.4Q261.27 101.27 256.73 95.49Q252.32 89.71 248.88 82.41Q245.58 75.11 243.65 66.71Q241.72 58.17 241.72 48.81ZM375.42 61.07Q375.42 59.41 375.42 55.7Q375.56 51.84 375.56 47.71Q375.56 43.44 375.56 39.72Q375.7 36.01 375.7 34.49Q375.84 33.53 376.39 31.6Q376.94 29.53 377.63 27.61Q378.45 25.68 379.69 24.3Q381.07 22.79 383 22.79Q387.54 22.79 391.53 25.27Q395.53 27.74 399.24 31.88Q402.96 35.87 406.27 40.83Q409.71 45.78 413.01 50.74Q416.32 55.56 419.49 59.96Q422.65 64.23 425.82 66.85Q429.26 65.33 431.19 61.34Q433.12 57.21 434.36 51.98Q435.6 46.61 436.56 40.96Q437.66 35.18 439.45 30.36Q441.24 25.54 444.13 22.51Q447.16 19.34 452.39 19.34Q458.59 19.34 463.55 24.16Q468.64 28.98 472.64 36.42Q476.63 43.85 479.38 52.94Q482.27 62.03 484.2 70.43Q486.13 78.83 487.09 85.58Q488.06 92.32 488.06 95.21Q488.06 96.45 487.92 97.97Q487.78 99.35 487.23 100.58Q486.68 101.69 485.44 102.38Q484.2 102.93 481.86 102.24Q481.17 102.1 480.21 101.55Q479.38 100.86 478.42 99.9Q477.46 98.93 476.77 98.11Q476.08 97.14 476.08 96.45Q474.84 89.71 473.32 81.45Q471.81 73.18 469.47 64.78Q467.27 56.25 463.82 48.26Q460.38 40.27 455.29 34.49Q451.29 36.69 448.95 41.24Q446.75 45.64 445.23 51.01Q443.72 56.25 442.48 61.75Q441.24 67.26 439.18 71.81Q437.11 76.21 433.94 79.1Q430.78 82 425.41 82Q421.69 82 418.11 79.66Q414.67 77.18 411.36 73.32Q408.06 69.33 404.89 64.65Q401.86 59.83 398.83 55.28Q395.94 50.6 393.05 46.61Q390.29 42.62 387.4 40.27Q386.3 44.54 385.61 47.85Q385.06 51.01 384.65 54.04Q384.37 57.07 384.24 60.24Q384.24 63.41 384.24 67.26Q384.24 73.05 385.2 78.83Q386.16 84.47 387.26 90.12Q388.37 95.77 389.33 101.55Q390.43 107.19 390.43 112.98L390.43 114.08Q390.16 114.49 389.33 115.46Q388.5 116.28 387.54 117.25Q386.71 118.21 385.75 119.04Q384.79 119.72 384.37 120Q384.24 120.14 383.82 120.14Q383.41 120.28 383 120.28Q382.72 120.28 382.31 120.14Q381.89 120 381.62 120Q380.66 112.01 379.55 104.85Q378.45 97.69 377.49 90.67Q376.66 83.65 375.97 76.49Q375.42 69.33 375.42 61.07ZM496.32 92.05Q496.32 83.51 500.31 76.21Q504.31 68.78 510.78 63.54Q517.39 58.17 525.51 55.15Q533.77 52.12 542.17 52.12Q546.85 52.12 550.43 55.15Q554.15 58.17 556.63 62.58Q559.11 66.85 560.35 71.67Q561.72 76.49 561.72 80.07Q561.72 87.78 558.01 95.08Q554.29 102.24 548.37 107.88Q542.45 113.39 535.01 116.83Q527.58 120.28 520.14 120.28Q513.53 120.28 508.99 118.07Q504.44 115.73 501.69 112.01Q498.94 108.16 497.56 103.06Q496.32 97.83 496.32 92.05ZM508.02 93.42Q508.02 97 508.57 99.76Q509.26 102.38 510.78 104.3Q512.43 106.23 515.05 107.33Q517.66 108.3 521.52 108.3Q526.61 108.3 531.71 105.54Q536.8 102.65 540.79 98.38Q544.93 93.98 547.4 88.74Q549.88 83.51 549.88 78.55Q549.88 76.35 549.47 73.73Q549.06 71.12 548.09 68.92Q547.13 66.71 545.34 65.2Q543.55 63.68 540.79 63.68Q538.32 63.68 534.87 65.33Q531.57 66.99 527.85 69.6Q524.27 72.22 520.69 75.52Q517.25 78.83 514.36 82.13Q511.47 85.44 509.68 88.47Q508.02 91.5 508.02 93.42ZM566.27 48.26Q567.23 44.96 568.47 45.23Q569.85 45.51 571.78 48.4Q573.7 51.29 576.04 56.11Q578.52 60.93 581.28 66.57Q584.03 72.08 587.2 77.87Q590.5 83.65 593.95 88.47Q597.53 93.29 601.38 96.45Q605.37 99.62 609.5 100.17L620.52 43.17Q620.8 40.83 622.59 40.55Q624.51 40.14 626.3 40.14Q632.5 40.14 632.5 45.92Q632.5 48.95 631.95 55.56Q631.4 62.17 630.16 70.15Q628.92 78 627.13 86.4Q625.34 94.66 622.86 101.55Q620.38 108.43 617.08 112.84Q613.91 117.25 610.06 117.25Q604.41 117.25 598.9 113.53Q593.39 109.67 588.44 103.61Q583.62 97.42 579.49 89.84Q575.49 82.27 572.46 74.7Q569.57 66.99 567.92 59.96Q566.27 52.94 566.27 48.26ZM646.54 68.36Q646.54 67.54 646.54 65.75Q646.68 63.82 646.68 61.75Q646.82 59.69 646.82 57.76Q646.96 55.83 646.96 55.01Q648.47 52.8 650.81 51.43Q653.29 50.05 655.77 49.22Q656.18 56.66 658.11 65.06Q660.04 73.46 662.24 82Q664.45 90.4 666.1 98.66Q667.89 106.92 667.89 114.08Q667.89 120.28 661.55 120.28Q657.7 120.28 655.08 117.11Q652.47 113.94 650.81 109.12Q649.3 104.17 648.33 98.24Q647.37 92.19 646.96 86.4Q646.68 80.62 646.54 75.8Q646.54 70.98 646.54 68.36ZM648.47 16.73Q651.09 17.83 652.88 20.31Q654.67 22.79 654.39 24.85Q654.26 26.78 651.36 27.61Q648.47 28.29 641.73 25.95Q641.73 22.24 643.1 19.48Q644.62 16.73 648.47 16.73ZM673.26 81.72Q673.26 74.29 675.05 66.85Q676.84 59.41 680.69 53.49Q684.69 47.57 690.88 43.85Q697.22 40.14 706.17 40.14Q711.26 40.14 715.12 42.06Q718.97 43.85 721.59 46.88Q724.21 49.91 725.44 54.04Q726.82 58.04 726.82 62.44Q726.82 69.47 723.52 76.08Q720.35 82.68 714.84 87.78Q709.47 92.74 702.45 95.35Q695.43 97.83 688.13 96.45Q688.27 100.45 690.75 102.93Q693.36 105.27 696.94 106.51Q700.52 107.75 704.38 108.16Q708.23 108.43 711.26 108.43Q714.43 108.43 717.18 107.88Q719.94 107.33 722.69 106.64Q725.44 105.96 728.2 105.4Q731.09 104.85 734.26 104.85Q735.5 104.85 736.74 104.99Q737.97 105.13 739.08 105.68Q740.18 106.09 740.87 107.19Q741.55 108.16 741.55 109.67Q741.55 112.29 739.63 114.08Q737.7 115.73 734.67 116.97Q731.78 118.21 728.2 118.9Q724.62 119.45 721.18 119.86Q717.87 120.14 714.98 120.28Q712.23 120.28 710.85 120.28Q702.04 120.28 695.01 117.52Q687.99 114.63 683.17 109.67Q678.35 104.58 675.74 97.56Q673.26 90.4 673.26 81.72ZM687.85 72.77Q687.85 77.59 689.09 79.79Q690.47 82 695.56 82Q699.14 82 702.59 80.76Q706.03 79.38 708.78 77.04Q711.67 74.7 713.33 71.53Q714.98 68.36 714.98 64.65Q714.98 62.58 714.57 60.38Q714.29 58.17 713.19 56.38Q712.09 54.46 710.3 53.36Q708.65 52.12 705.89 52.12Q701.76 52.12 698.32 54.04Q695.01 55.83 692.67 58.86Q690.33 61.75 689.09 65.47Q687.85 69.05 687.85 72.77ZM810.82 29.67Q810.82 26.92 812.61 26.09Q814.53 25.27 816.74 25.27Q817.15 25.27 818.25 25.4Q819.49 25.54 819.77 25.54Q820.18 29.81 820.59 35.87Q821 41.79 821.56 48.81Q822.11 55.7 822.93 63.13Q823.76 70.57 825.27 77.73Q826.79 84.75 828.99 91.22Q831.19 97.56 834.36 102.24Q835.05 103.48 835.6 104.17Q836.29 104.72 836.84 105.13Q837.53 105.4 838.35 105.54Q839.18 105.54 840.42 105.54Q846.07 105.54 851.16 103.61Q856.39 101.69 861.49 99.35Q866.58 97 871.81 95.08Q877.05 93.15 882.83 93.15Q884.07 93.15 886 93.15Q887.92 93.01 889.58 93.29Q891.23 93.56 892.47 94.66Q893.71 95.77 893.71 97.97Q893.71 100.03 889.99 102.51Q886.27 104.85 880.49 107.33Q874.71 109.67 867.82 112.01Q861.07 114.35 854.74 116.14Q848.54 117.93 843.72 119.04Q838.91 120 837.39 120Q832.43 120 828.58 116.7Q824.86 113.25 821.97 107.61Q819.21 101.82 817.29 94.53Q815.36 87.09 814.12 79.1Q812.88 71.12 812.19 63.27Q811.5 55.42 811.23 48.67Q810.95 41.93 810.82 36.83Q810.82 31.74 810.82 29.67ZM904.86 68.36Q904.86 67.54 904.86 65.75Q905 63.82 905 61.75Q905.14 59.69 905.14 57.76Q905.27 55.83 905.27 55.01Q906.79 52.8 909.13 51.43Q911.61 50.05 914.09 49.22Q914.5 56.66 916.43 65.06Q918.36 73.46 920.56 82Q922.76 90.4 924.41 98.66Q926.2 106.92 926.2 114.08Q926.2 120.28 919.87 120.28Q916.01 120.28 913.4 117.11Q910.78 113.94 909.13 109.12Q907.62 104.17 906.65 98.24Q905.69 92.19 905.27 86.4Q905 80.62 904.86 75.8Q904.86 70.98 904.86 68.36ZM906.79 16.73Q909.41 17.83 911.2 20.31Q912.99 22.79 912.71 24.85Q912.57 26.78 909.68 27.61Q906.79 28.29 900.04 25.95Q900.04 22.24 901.42 19.48Q902.93 16.73 906.79 16.73ZM952.37 114.08Q948.1 101.69 944.24 90.95Q940.52 80.07 937.63 69.74Q934.88 59.28 933.23 48.54Q931.57 37.8 931.57 25.54Q931.57 24.58 931.57 22.1Q931.71 19.48 931.71 16.73Q931.71 13.97 931.71 11.5Q931.85 8.88 931.85 7.92Q933.09 5.16 936.12 2.82Q939.29 0.48 942.45 0.48Q942.45 10.67 942.73 22.24Q943 33.67 944.38 45.09Q945.89 56.52 949.06 67.54Q952.37 78.42 958.29 87.5Q958.42 84.2 958.56 80.21Q958.7 76.21 959.25 72.22Q959.94 68.23 961.32 64.51Q962.69 60.79 965.31 57.9Q968.06 55.01 972.33 53.36Q976.74 51.7 983.35 51.84Q989.27 51.84 993.95 54.04Q998.77 56.25 1001.94 60.1Q1005.24 63.82 1006.89 68.92Q1008.68 73.87 1008.68 79.52Q1008.68 87.09 1004.97 94.39Q1001.25 101.69 995.05 107.47Q988.99 113.25 981.42 116.83Q973.85 120.28 966 120.28Q962 120.28 958.29 118.9Q954.57 117.38 952.37 114.08ZM985 63.82Q982.25 65.33 979.22 67.4Q976.19 69.47 973.57 73.87Q971.09 78.14 969.3 85.58Q967.51 93.01 967.1 105.27Q967.38 105.27 968.48 105.4Q969.72 105.54 970.13 105.54Q973.85 105.54 978.53 103.2Q983.35 100.86 987.75 97.42Q992.3 93.98 995.6 89.84Q998.91 85.58 999.6 81.72Q1000.01 79.38 998.63 76.35Q997.25 73.32 994.91 70.57Q992.71 67.68 989.96 65.75Q987.34 63.82 985 63.82ZM1017.08 62.17Q1017.08 60.93 1017.22 59.69Q1017.36 58.31 1017.77 57.35Q1018.18 56.25 1019.01 55.56Q1019.97 54.87 1021.63 54.87Q1023 54.87 1024.66 57.07Q1026.45 59.14 1028.24 62.44Q1030.03 65.61 1031.68 69.47Q1033.47 73.32 1034.71 76.63Q1036.08 79.79 1036.91 82.13Q1037.74 84.47 1037.88 84.61Q1039.67 79.79 1041.87 74.15Q1044.07 68.5 1047.24 63.68Q1050.54 58.73 1054.95 55.42Q1059.49 52.12 1065.96 52.12Q1069.27 52.12 1072.16 53.22Q1075.19 54.18 1077.39 56.25Q1079.73 58.17 1081.11 60.93Q1082.49 63.68 1082.49 67.26Q1082.49 70.29 1080.01 71.53Q1077.67 72.77 1074.64 72.77L1073.26 72.77L1067.34 66.85Q1067.07 66.85 1066.93 66.71Q1066.65 66.71 1066.38 66.71Q1066.24 66.57 1065.96 66.57Q1061.15 66.57 1058.39 69.33Q1055.78 71.94 1054.4 75.94Q1053.02 79.79 1052.61 84.2Q1052.33 88.47 1052.33 92.05Q1052.33 94.8 1052.88 97.69Q1053.43 100.45 1054.12 103.2Q1054.81 105.82 1055.36 108.71Q1055.91 111.46 1055.91 114.49Q1055.91 120.28 1049.72 120.28Q1046.27 120.28 1042.56 116.7Q1038.84 112.98 1035.12 107.33Q1031.54 101.69 1028.24 94.94Q1024.93 88.05 1022.45 81.58Q1019.97 75.11 1018.46 69.88Q1017.08 64.65 1017.08 62.17ZM1146.65 102.24Q1141.42 105.82 1137.57 108.71Q1133.85 111.46 1130.27 113.39Q1126.69 115.32 1122.56 116.28Q1118.56 117.25 1112.64 117.25Q1099.84 117.25 1093.64 110.5Q1087.45 103.61 1087.45 90.12Q1087.45 84.89 1088.82 79.24Q1090.2 73.6 1092.82 68.09Q1095.57 62.44 1099.29 57.49Q1103 52.39 1107.69 48.54Q1112.37 44.68 1117.6 42.48Q1122.97 40.14 1128.89 40.14Q1138.81 41.1 1144.45 45.09Q1150.1 48.95 1152.99 55.15Q1155.88 61.2 1156.98 68.78Q1158.08 76.21 1158.63 84.2Q1159.32 92.19 1160.29 100.17Q1161.25 108.16 1164.28 114.91Q1162.49 119.45 1160.84 121.38Q1159.32 123.17 1157.39 121.93Q1155.47 120.69 1152.85 115.87Q1150.37 111.05 1146.65 102.24ZM1099.15 90.4Q1099.15 98.24 1102.04 101.96Q1105.07 105.54 1112.64 105.54Q1118.29 105.54 1123.38 103.61Q1128.62 101.55 1132.47 98.11Q1136.33 94.53 1138.67 89.57Q1141.01 84.61 1141.01 78.55Q1141.01 76.08 1141.15 71.67Q1141.28 67.13 1140.6 62.72Q1139.91 58.31 1137.98 55.15Q1136.05 51.84 1132.2 51.84Q1125.04 51.84 1118.98 55.56Q1112.92 59.14 1108.51 64.78Q1104.11 70.43 1101.63 77.31Q1099.15 84.06 1099.15 90.4ZM1172.95 62.17Q1172.95 60.93 1173.09 59.69Q1173.23 58.31 1173.64 57.35Q1174.06 56.25 1174.88 55.56Q1175.85 54.87 1177.5 54.87Q1178.88 54.87 1180.53 57.07Q1182.32 59.14 1184.11 62.44Q1185.9 65.61 1187.55 69.47Q1189.34 73.32 1190.58 76.63Q1191.96 79.79 1192.78 82.13Q1193.61 84.47 1193.75 84.61Q1195.54 79.79 1197.74 74.15Q1199.94 68.5 1203.11 63.68Q1206.41 58.73 1210.82 55.42Q1215.36 52.12 1221.84 52.12Q1225.14 52.12 1228.03 53.22Q1231.06 54.18 1233.26 56.25Q1235.61 58.17 1236.98 60.93Q1238.36 63.68 1238.36 67.26Q1238.36 70.29 1235.88 71.53Q1233.54 72.77 1230.51 72.77L1229.13 72.77L1223.21 66.85Q1222.94 66.85 1222.8 66.71Q1222.52 66.71 1222.25 66.71Q1222.11 66.57 1221.84 66.57Q1217.02 66.57 1214.26 69.33Q1211.65 71.94 1210.27 75.94Q1208.89 79.79 1208.48 84.2Q1208.2 88.47 1208.2 92.05Q1208.2 94.8 1208.75 97.69Q1209.31 100.45 1209.99 103.2Q1210.68 105.82 1211.23 108.71Q1211.78 111.46 1211.78 114.49Q1211.78 120.28 1205.59 120.28Q1202.15 120.28 1198.43 116.7Q1194.71 112.98 1190.99 107.33Q1187.41 101.69 1184.11 94.94Q1180.8 88.05 1178.32 81.58Q1175.85 75.11 1174.33 69.88Q1172.95 64.65 1172.95 62.17ZM1240.98 48.81Q1240.98 47.57 1240.98 46.33Q1241.11 44.96 1241.53 43.85Q1242.08 42.62 1242.9 42.06Q1243.87 41.38 1245.66 41.38Q1245.79 41.38 1245.93 41.38Q1246.21 41.38 1246.48 41.38Q1246.9 41.51 1247.17 41.51Q1249.79 45.09 1251.72 50.74Q1253.64 56.25 1255.43 62.58Q1257.22 68.78 1259.29 75.25Q1261.35 81.58 1264.66 86.68Q1267.96 91.77 1272.78 94.8Q1277.6 97.83 1284.76 97.42Q1287.93 97.42 1288.89 93.98Q1289.86 90.53 1289.86 85.16Q1290 79.79 1289.58 73.32Q1289.31 66.85 1289.58 61.07Q1290 55.15 1291.65 50.74Q1293.44 46.33 1297.71 44.82Q1299.5 48.4 1300.6 56.11Q1301.84 63.68 1302.39 73.73Q1302.94 83.65 1302.94 95.35Q1302.94 106.92 1302.39 118.49Q1301.84 129.91 1300.74 140.52Q1299.63 151.12 1298.26 159.11Q1296.88 167.09 1294.95 171.77Q1293.16 176.32 1291.1 175.63Q1288.21 172.88 1286.55 168.47Q1285.04 164.06 1284.35 158.69Q1283.8 153.32 1283.94 147.4Q1284.07 141.34 1284.35 135.28Q1284.76 129.23 1285.18 123.44Q1285.73 117.66 1285.73 112.84Q1280.77 113.25 1275.54 111.33Q1270.44 109.4 1265.49 105.4Q1260.53 101.27 1255.98 95.49Q1251.58 89.71 1248.14 82.41Q1244.83 75.11 1242.9 66.71Q1240.98 58.17 1240.98 48.81ZM1383.63 114.08Q1383.63 111.88 1385.56 108.3Q1387.48 104.72 1390.51 100.72Q1393.54 96.59 1396.98 92.32Q1400.56 87.92 1403.87 84.06Q1407.17 80.07 1409.65 77.18Q1412.13 74.15 1413.23 72.77Q1413.23 72.5 1413.37 72.08Q1413.51 71.53 1413.51 71.26Q1413.51 71.26 1413.37 70.57Q1413.23 70.29 1413.23 69.88Q1412.96 69.33 1411.86 68.23Q1410.75 67.13 1410.2 66.85Q1409.38 66.3 1406.9 64.78Q1404.42 63.27 1401.12 61.07Q1397.81 58.86 1393.96 56.52Q1390.24 54.18 1386.93 52.12Q1383.63 49.91 1381.15 48.4Q1378.67 46.75 1377.71 46.33Q1375.64 44.96 1374.82 43.44Q1374.13 41.93 1374.13 39.45Q1377.84 39.45 1383.77 40.69Q1389.82 41.79 1396.43 43.85Q1403.04 45.78 1409.79 48.54Q1416.54 51.29 1421.91 54.59Q1427.28 57.76 1430.72 61.34Q1434.16 64.92 1434.16 68.36Q1434.16 68.64 1434.02 69.19Q1433.89 69.6 1433.89 69.88Q1432.65 71.39 1430.17 74.42Q1427.69 77.31 1424.52 81.17Q1421.36 85.03 1417.78 89.29Q1414.33 93.42 1411.03 97.14Q1407.86 100.86 1405.25 103.89Q1402.63 106.92 1401.39 108.3Q1399.33 110.64 1398.09 112.29Q1396.85 113.94 1395.75 115.04Q1394.78 116.14 1393.4 116.7Q1392.17 117.25 1389.82 117.25Q1389.27 117.25 1388.17 117.25Q1387.21 117.11 1386.11 116.83Q1385.14 116.56 1384.32 116.01Q1383.63 115.32 1383.63 114.08Z" /></svg>